<svg width="612" height="383" viewBox="0 0 612 383" fill="none" xmlns="http://www.w3.org/2000/svg" xmlns:xlink="http://www.w3.org/1999/xlink">
<path d="M148.253 224.689C159.46 216.907 201.156 202.889 220.604 196.853H242.447C255.411 200.066 284.535 207.791 297.326 212.976C310.117 218.161 333.436 248.866 342.799 263.126L332.611 282.633C306.684 308.215 327.574 330.8 341.402 339.154C320.661 339.154 311.73 331.376 309.858 327.487C311.932 339.241 313.603 368.106 314.179 381.07H161.641V357.51H103.462C98.1005 298.848 134.244 234.417 148.253 224.689Z" fill="url(#paint0_linear)"/>
<ellipse cx="233.172" cy="215.361" rx="25.9725" ry="18.5082" fill="#CF0606"/>
<path d="M213.89 213.45C217.262 194.065 216.074 176.128 215.547 169.939C216.284 164.145 246.944 174.997 261.692 180.792C253.37 185.006 251.114 206.075 251.026 216.083C251.289 219.376 249.235 226.355 238.911 227.935C221.634 229.937 215.032 219.112 213.89 213.45Z" fill="url(#paint1_linear)"/>
<mask id="mask0" mask-type="alpha" maskUnits="userSpaceOnUse" x="213" y="168" width="49" height="61">
<path d="M213.89 213.45C217.262 194.065 216.074 176.128 215.547 169.939C216.284 164.145 246.944 174.997 261.692 180.792C253.37 185.006 251.114 206.075 251.026 216.083C251.289 219.376 249.235 226.355 238.911 227.935C221.634 229.937 215.032 219.112 213.89 213.45Z" fill="#BABABA"/>
</mask>
<g mask="url(#mask0)">
<path opacity="0.1" d="M256.589 200.902C235.826 197.662 220.433 179.408 215.331 170.686C227.182 168.241 253.828 164.819 265.608 170.686C277.389 176.553 264.504 193.275 256.589 200.902Z" fill="black"/>
</g>
<path d="M250.264 184.341C284.366 182.858 285.34 136.222 281.565 113.089C219.951 60.8648 195.211 101.9 190.544 128.945C196.241 148.028 216.161 185.824 250.264 184.341Z" fill="url(#paint2_linear)"/>
<path d="M206.245 66.4749C196.434 63.3823 175.98 61.836 172.653 80.3916C172.653 92.3887 201.606 89.3494 206.245 66.4749Z" fill="#30235B"/>
<path d="M218.058 128.098L231.953 140.032L230.445 146.992L217.485 135.618L218.058 128.098Z" fill="#111111"/>
<path d="M203.929 138.83C215.791 148.879 216.56 164.571 215.461 171.161C211.617 170.131 200.881 163.459 188.69 145.008C169.25 105.304 192.671 75.6093 206.812 65.7246C244.703 43.6901 295.362 77.8745 286.507 104.028C277.652 130.181 235.299 124.14 219.58 114.118C222.874 124.003 219.854 133.75 217.932 137.388C210.519 120.09 189.102 126.268 203.929 138.83Z" fill="#30235B"/>
<path d="M229.321 60.6219C254.553 53.3745 269.92 66.4378 274.45 73.8754C269.361 71.1352 255.258 67.299 239.555 73.8754C214.726 85.2834 209.301 109.609 209.693 120.346L193.252 119.172V113.132C194.762 98.6487 204.089 67.8694 229.321 60.6219Z" fill="white"/>
<ellipse cx="199.985" cy="135.067" rx="19.2976" ry="23.6088" fill="white"/>
<ellipse cx="199.985" cy="135.067" rx="19.2976" ry="23.6088" fill="white"/>
<ellipse cx="199.985" cy="135.067" rx="9.21133" ry="11.2692" fill="#24C28A"/>
<path opacity="0.5" d="M284.303 131.464C277.15 129.254 269.447 133.967 266.489 136.6C261.111 141.735 269.266 154.792 278.695 148.777C286.238 143.965 285.577 135.231 284.303 131.464Z" fill="#E6FCFF"/>
<path fill-rule="evenodd" clip-rule="evenodd" d="M263.458 135.05C273.804 125.493 283.615 127.126 287.228 129.138C289.318 134.673 287.228 150.849 275.69 152.283C266.459 153.43 263.296 146.294 262.868 142.582C261.114 141.165 259.948 142.387 259.585 143.174C259.888 153.49 251.596 160.467 242.696 158.849C235.577 157.555 232.478 150.441 231.818 147.045H230.346V141.01C239.617 131.932 252.425 134.157 257.67 136.404C259.049 135.321 262.104 135.05 263.458 135.05ZM283.76 132.112C276.607 129.901 270.072 133.689 267.114 136.322C261.736 141.457 268.8 154.038 278.669 148.777C284.579 145.627 285.033 135.878 283.76 132.112ZM243.315 138.843C247.22 137.572 255.185 136.722 255.795 143.489C256.558 151.948 248.861 158.188 242.136 154.86C237.266 152.45 235.272 147.51 235.272 144.39C235.272 141.894 240.634 139.652 243.315 138.843Z" fill="#111111"/>
<path opacity="0.5" d="M255.821 143.489C255.211 136.722 247.246 137.572 243.34 138.844C240.66 139.652 235.298 141.894 235.298 144.39C235.298 147.51 237.292 152.45 242.162 154.86C248.887 158.188 256.583 151.948 255.821 143.489Z" fill="#E6FCFF"/>
<path d="M103.413 357.585C109.412 384.321 145.039 384.375 162.102 381.061L293.628 362.058C295.323 363.531 299.384 367.413 302.061 371.165C304.738 374.916 307.192 372.279 308.084 370.491C311.939 374.668 314.777 372.68 315.714 371.165C319.034 375.344 321.827 373.885 322.809 372.633C327.413 376.06 328.576 373.082 328.581 371.165C322.299 357.862 311.029 344.529 306.18 339.525L273.385 342.528L166.83 331.664C146.614 317.481 95.9136 324.165 103.413 357.585Z" fill="url(#paint3_linear)"/>
<path d="M358.251 317.133C352.31 336.319 344.12 339.671 340.767 338.949C305.481 315.337 320.633 291.141 332.62 281.995L363.865 217.664C359.341 214.126 354.301 203.059 354.818 196.08C355.232 190.497 359.04 190.31 360.892 190.915C361.409 185.13 365.588 185.314 367.613 186.129C369.371 179.822 374.463 181.175 376.789 182.639C377.099 173.954 383.122 175.144 386.094 176.824L391.312 190.915C393.444 191.211 398.388 191.895 401.111 192.267C404.515 192.731 408.848 193.35 406.681 198.146C404.949 201.984 396.16 215.115 391.982 221.201C383.214 245.184 364.193 297.946 358.251 317.133Z" fill="url(#paint4_linear)"/>
<path d="M268.31 374.167H337.116C337.116 377.979 334.025 381.07 330.213 381.07H275.212C271.4 381.07 268.31 377.979 268.31 374.167Z" fill="#B4B4B4"/>
<path d="M359.053 289.218C359.534 288.064 360.662 287.313 361.912 287.313H478.112C480.322 287.313 481.821 289.561 480.971 291.601L444.466 379.164C443.985 380.318 442.858 381.07 441.608 381.07H325.407C323.197 381.07 321.698 378.821 322.549 376.781L359.053 289.218Z" fill="url(#paint5_linear)"/>
<path d="M166.87 331.632L169.956 307.343" stroke="#30235B" stroke-width="0.619401"/>
<path d="M309.764 327.631C309.301 324.78 308.514 317.889 309.069 313.134" stroke="#30235B" stroke-width="0.619401"/>
<path d="M308.925 318.451L306.271 313.072" stroke="#30235B" stroke-width="0.619401"/>
<path d="M307.986 370.269L299.368 359.392" stroke="#30235B" stroke-width="0.619401"/>
<path d="M315.614 370.807L302.164 353.352" stroke="#30235B" stroke-width="0.619401"/>
<path d="M322.685 372.407L305.967 348.319" stroke="#30235B" stroke-width="0.619401"/>
<path d="M360.888 191.019C361.349 193.415 362.851 199.078 365.177 202.566" stroke="#30235B" stroke-width="0.619401"/>
<path d="M376.818 182.69C377.522 185.162 379.356 190.737 381.056 193.262" stroke="#30235B" stroke-width="0.619401"/>
<path d="M367.52 186.282C368.349 188.973 370.409 194.889 372.012 197.026" stroke="#30235B" stroke-width="0.619401"/>
<path d="M391.246 190.906L393.81 198.408" stroke="#30235B" stroke-width="0.619401"/>
<ellipse cx="405.978" cy="336.423" rx="7.86131" ry="11.3813" transform="rotate(19.8998 405.978 336.423)" fill="white"/>
<rect x="609.137" y="261.004" width="126.405" height="10.3543" transform="rotate(117.371 609.137 261.004)" fill="#E0E0E0"/>
<rect x="519.833" y="365.447" width="58.4432" height="15.6235" rx="3.09701" fill="#30235B"/>
<rect x="602.449" y="262.019" width="67.8967" height="10.3543" transform="rotate(-139.766 602.449 262.019)" fill="#E0E0E0"/>
<rect x="551.719" y="213.653" width="20.0325" height="3.56661" transform="rotate(162.128 551.719 213.653)" fill="#E0E0E0"/>
<circle cx="604.767" cy="257.849" r="7.23339" fill="#30235B"/>
<path d="M547.196 208.427L557.329 210.308L550.633 218.144L547.196 208.427Z" fill="#30235B"/>
<path d="M515.634 205.05C517.968 199.187 524.613 196.326 530.476 198.66C536.339 200.994 539.2 207.639 536.866 213.503L530.412 229.715L509.18 221.262L515.634 205.05Z" fill="#30235B"/>
<path d="M522.366 221.591C498.803 212.339 483.125 233.065 477.59 244.042C493.951 267.368 523.921 269.764 537.503 268.59C542.276 256.779 545.93 230.843 522.366 221.591Z" fill="#30235B"/>
<path d="M45.9919 309.441C30.8299 318.722 26.0589 310.258 25.5686 304.867C25.5686 297.024 25.5686 290.489 15.2755 278.888C-9.55896 251.44 -1.7165 207.653 32.5943 204.875C66.9051 202.098 56.9386 223.828 44.8481 237.879C32.7816 251.902 40.4065 256.161 58.4651 266.248L58.5725 266.308C82.0999 280.522 62.4937 293.266 50.8934 295.554C39.2931 297.841 49.2595 304.867 45.9919 309.441Z" fill="url(#paint6_linear)"/>
<path d="M196.089 157.483C190.716 156.355 180.059 149.308 181.021 133.118" stroke="#30235B" stroke-width="0.949425"/>
<path d="M271.78 70.6571C268.855 66.3154 261.945 59.8983 248.015 59.2402" stroke="#30235B" stroke-width="0.949425"/>
<path d="M80.3817 348.499C81.6643 333.806 68.0855 330.269 59.7797 330.27C58.7811 330.27 57.9288 330.954 57.6393 331.909C57.166 333.471 58.3638 335.046 59.9912 335.169C67.3256 335.721 77.2155 338.841 75.3912 348.499C73.6208 357.871 65.4975 359.638 59.7464 359.24C58.1618 359.131 56.6766 360.311 56.6766 361.899C56.6766 363.082 57.5134 364.11 58.6903 364.233C66.4491 365.047 79.1255 362.888 80.3817 348.499Z" fill="url(#paint7_linear)"/>
<path d="M59.0796 325.094V377.973C59.0796 379.683 57.693 381.07 55.9826 381.07H14.2349C12.5245 381.07 11.1379 379.683 11.1379 377.973L11.138 325.094C11.138 323.384 12.5245 321.997 14.235 321.997H55.9826C57.693 321.997 59.0796 323.384 59.0796 325.094Z" fill="url(#paint8_linear)"/>
<path d="M332.578 281.938L342.169 262.272" stroke="#30235B" stroke-width="0.949425"/>
<path d="M252.429 340.283C249.241 351.043 251.101 363.199 252.429 367.932L261.294 366.675C259.446 352.574 260.524 343.857 261.294 341.262L252.429 340.283Z" fill="#30235B"/>
<rect x="248.917" y="335.674" width="16.7668" height="4.34698" rx="2.17349" transform="rotate(6.01694 248.917 335.674)" fill="url(#paint9_linear)"/>
<rect opacity="0.5" x="323.635" y="1.17599" width="73.8938" height="57.2037" rx="2.54344" stroke="#F0F0F0" stroke-width="1.89885"/>
<path d="M371.373 27.778C372.913 28.6668 372.913 30.8889 371.373 31.7777L352.1 42.9052C350.56 43.7941 348.636 42.683 348.636 40.9053V18.6504C348.636 16.8727 350.56 15.7616 352.1 16.6505L371.373 27.778Z" fill="#FF7979"/>
<rect opacity="0.5" x="338.473" y="8.57031" width="42.583" height="39.2283" fill="white"/>
<rect opacity="0.5" x="16.6064" y="1.0588" width="99.9827" height="77.5477" rx="3.7977" stroke="#F0F0F0" stroke-width="1.89885"/>
<path d="M77.9862 39.8329C79.1944 39.8329 80.3531 40.3128 81.2074 41.1671C82.0617 42.0214 82.5416 43.1801 82.5416 44.3882V58.0544C82.5416 59.2626 82.0617 60.4212 81.2074 61.2756C80.3531 62.1299 79.1944 62.6098 77.9862 62.6098H55.2093C54.0011 62.6098 52.8424 62.1299 51.9881 61.2756C51.1338 60.4212 50.6539 59.2626 50.6539 58.0544V44.3882C50.6539 43.1801 51.1338 42.0214 51.9881 41.1671C52.8424 40.3128 54.0011 39.8328 55.2093 39.8329V28.4444C55.2093 25.424 56.4091 22.5273 58.5449 20.3915C60.6806 18.2558 63.5773 17.0559 66.5978 17.0559C69.6182 17.0559 72.5149 18.2558 74.6506 20.3915C76.7864 22.5273 77.9862 25.424 77.9862 28.4444V39.8329ZM66.5978 55.7767C67.8059 55.7767 68.9646 55.2968 69.8189 54.4425C70.6732 53.5882 71.1531 52.4295 71.1531 51.2213C71.1531 50.0132 70.6732 48.8545 69.8189 48.0002C68.9646 47.1459 67.8059 46.6659 66.5978 46.6659C65.3896 46.6659 64.2309 47.1459 63.3766 48.0002C62.5223 48.8545 62.0424 50.0132 62.0424 51.2213C62.0424 52.4295 62.5223 53.5882 63.3766 54.4425C64.2309 55.2968 65.3896 55.7767 66.5978 55.7767ZM73.4308 39.8329V28.4444C73.4308 26.6321 72.7109 24.8941 71.4295 23.6127C70.148 22.3312 68.41 21.6113 66.5978 21.6113C64.7855 21.6113 63.0475 22.3312 61.766 23.6127C60.4846 24.8941 59.7647 26.6321 59.7647 28.4444V39.8329H73.4308Z" fill="url(#paint10_linear)"/>
<rect opacity="0.5" x="36.5493" y="8.15186" width="60.7536" height="58.4305" fill="white"/>
<rect opacity="0.5" x="70.5715" y="134.896" width="68.0659" height="52.6592" rx="3.7977" stroke="#E2E2E2" stroke-width="1.89885"/>
<mask id="mask1" mask-type="alpha" maskUnits="userSpaceOnUse" x="88" y="145" width="33" height="33">
<rect x="88.4522" y="145.073" width="32.3045" height="32.3045" fill="url(#pattern0)"/>
</mask>
<g mask="url(#mask1)">
<rect x="80.6368" y="131.939" width="44.3269" height="54.6698" fill="#FF7979"/>
</g>
<rect opacity="0.5" x="85.6575" y="139.016" width="42.9317" height="45.3675" fill="white"/>
<rect opacity="0.5" x="437.758" y="67.1135" width="111.022" height="80.4669" rx="3.7977" stroke="#F7F7F7" stroke-width="1.89885"/>
<rect x="455.318" y="102.172" width="18.9885" height="26.5653" rx="2.58027" fill="#FF7979"/>
<rect x="483.774" y="85.9568" width="18.9885" height="42.7804" rx="2.58027" fill="#9EFFAE"/>
<rect x="512.23" y="92.8569" width="18.9885" height="35.8803" rx="2.58027" fill="#FFDEAD"/>
<rect opacity="0.5" x="443.521" y="79.5562" width="96.4972" height="58.4137" fill="white"/>
<defs>
<pattern id="pattern0" patternContentUnits="objectBoundingBox" width="1" height="1">
<use xlink:href="#image0" transform="scale(0.00195312)"/>
</pattern>
<linearGradient id="paint0_linear" x1="235.261" y1="166.563" x2="222.861" y2="414.901" gradientUnits="userSpaceOnUse">
<stop stop-color="#FF9F81"/>
<stop offset="1" stop-color="#F53838"/>
</linearGradient>
<linearGradient id="paint1_linear" x1="235.127" y1="99.3437" x2="232.91" y2="209.644" gradientUnits="userSpaceOnUse">
<stop stop-color="#FFEFE0"/>
<stop offset="1" stop-color="#FFBE99"/>
</linearGradient>
<linearGradient id="paint2_linear" x1="236.808" y1="87.928" x2="236.808" y2="184.383" gradientUnits="userSpaceOnUse">
<stop stop-color="#FFEFE0"/>
<stop offset="1" stop-color="#FFBE99"/>
</linearGradient>
<linearGradient id="paint3_linear" x1="215.622" y1="288.635" x2="215.622" y2="372.501" gradientUnits="userSpaceOnUse">
<stop offset="0.0677966" stop-color="#FFEFE0"/>
<stop offset="1" stop-color="#FFBE99"/>
</linearGradient>
<linearGradient id="paint4_linear" x1="332.507" y1="165.546" x2="413.893" y2="260.794" gradientUnits="userSpaceOnUse">
<stop stop-color="#FFEFE0"/>
<stop offset="1" stop-color="#FFBE99"/>
</linearGradient>
<linearGradient id="paint5_linear" x1="435.21" y1="216.948" x2="389.565" y2="406.293" gradientUnits="userSpaceOnUse">
<stop offset="0.0171777" stop-color="white"/>
<stop offset="1" stop-color="#D7D7D7"/>
</linearGradient>
<linearGradient id="paint6_linear" x1="-22.6908" y1="321.388" x2="69.622" y2="204.633" gradientUnits="userSpaceOnUse">
<stop stop-color="#ECECEC"/>
<stop offset="1" stop-color="#F5F5F5" stop-opacity="0"/>
</linearGradient>
<linearGradient id="paint7_linear" x1="88.5126" y1="337.422" x2="56.6766" y2="338.121" gradientUnits="userSpaceOnUse">
<stop stop-color="white"/>
<stop offset="1" stop-color="#CCCCCC"/>
</linearGradient>
<linearGradient id="paint8_linear" x1="35.1088" y1="304.164" x2="35.1088" y2="399.388" gradientUnits="userSpaceOnUse">
<stop stop-color="white"/>
<stop offset="1" stop-color="#CCCCCC"/>
</linearGradient>
<linearGradient id="paint9_linear" x1="256.982" y1="334.824" x2="256.87" y2="340.092" gradientUnits="userSpaceOnUse">
<stop stop-color="#7F67CE"/>
<stop offset="1" stop-color="#30235B"/>
</linearGradient>
<linearGradient id="paint10_linear" x1="66.5978" y1="17.0559" x2="66.5978" y2="62.6098" gradientUnits="userSpaceOnUse">
<stop stop-color="#FFD5B7"/>
<stop offset="1" stop-color="#FFAB6D"/>
</linearGradient>
</defs>
</svg>
