<svg width="16" height="17" viewBox="0 0 16 17" fill="none" xmlns="http://www.w3.org/2000/svg">
<path d="M14.1891 6.41802L10.2219 5.84146L8.44847 2.24615C8.40003 2.14771 8.32034 2.06802 8.2219 2.01959C7.97503 1.89771 7.67503 1.99927 7.55159 2.24615L5.77815 5.84146L1.81097 6.41802C1.70159 6.43365 1.60159 6.48521 1.52503 6.56334C1.43247 6.65847 1.38146 6.78646 1.38322 6.91918C1.38498 7.0519 1.43936 7.1785 1.5344 7.27115L4.40472 10.0696L3.72659 14.0211C3.71069 14.1131 3.72086 14.2076 3.75595 14.294C3.79105 14.3805 3.84966 14.4554 3.92514 14.5102C4.00062 14.565 4.08995 14.5976 4.183 14.6042C4.27605 14.6108 4.3691 14.5913 4.45159 14.5477L8.00003 12.6821L11.5485 14.5477C11.6453 14.5993 11.7578 14.6165 11.8657 14.5977C12.1375 14.5508 12.3203 14.293 12.2735 14.0211L11.5953 10.0696L14.4657 7.27115C14.5438 7.19459 14.5953 7.09459 14.611 6.98521C14.6532 6.71177 14.4625 6.45865 14.1891 6.41802Z" fill="#FEA250"/>
</svg>